<svg width="225" height="72" viewBox="0 0 225 72" fill="none" xmlns="http://www.w3.org/2000/svg">
<path d="M70.3755 36.2906C69.2747 36.9225 67.9395 37.4219 66.3699 37.7888C64.8003 38.1558 63.1696 38.3392 61.4777 38.3392C59.1946 38.3392 57.2479 38.064 55.6375 37.5137C54.0475 36.9633 52.8448 36.1989 52.0294 35.2204C51.2344 34.2419 50.8369 33.1106 50.8369 31.8264C50.8369 30.7052 51.1427 29.7166 51.7542 28.8604C52.3658 28.0043 53.2117 27.3418 54.2921 26.8729C53.4564 26.4449 52.8142 25.8537 52.3658 25.0995C51.9377 24.3249 51.7237 23.4789 51.7237 22.5616C51.7237 21.3793 52.0906 20.2989 52.8244 19.3205C53.5787 18.342 54.7202 17.5572 56.249 16.9661C57.7779 16.3749 59.6634 16.0793 61.9057 16.0793C63.3123 16.0793 64.6984 16.2118 66.0642 16.4768C67.4299 16.7418 68.6326 17.0986 69.6722 17.547L68.0211 22.0724C66.1253 21.2366 64.1684 20.8187 62.1503 20.8187C60.703 20.8187 59.6227 21.0124 58.9092 21.3997C58.1958 21.7666 57.839 22.2864 57.839 22.9591C57.839 24.1822 58.7257 24.7937 60.4992 24.7937H66.5534V29.4108H60.1017C59.0621 29.4108 58.2773 29.5841 57.7473 29.9306C57.2173 30.2568 56.9523 30.746 56.9523 31.3983C56.9523 32.0914 57.3396 32.6316 58.1142 33.0189C58.8888 33.4062 60.0915 33.5998 61.7223 33.5998C62.8842 33.5998 64.0767 33.4469 65.2998 33.1412C66.5432 32.815 67.6236 32.3768 68.5409 31.8264L70.3755 36.2906Z" fill="white"/>
<path d="M85.9594 29.2274C87.8551 29.8593 88.803 31.1639 88.803 33.1412C88.803 34.6292 88.222 35.8014 87.0601 36.6575C85.8982 37.4933 84.1859 37.9112 81.9232 37.9112H72.5973V21.3385H81.4952C83.6559 21.3385 85.3274 21.7157 86.5098 22.4699C87.7124 23.2241 88.3138 24.2841 88.3138 25.6499C88.3138 26.4449 88.1099 27.1481 87.7022 27.7597C87.2946 28.3712 86.7136 28.8604 85.9594 29.2274ZM77.7954 28.0043H80.9754C82.3207 28.0043 82.9934 27.5049 82.9934 26.506C82.9934 25.5479 82.3207 25.0689 80.9754 25.0689H77.7954V28.0043ZM81.4034 34.1502C82.81 34.1502 83.5132 33.6406 83.5132 32.6214C83.5132 31.6021 82.8303 31.0925 81.4646 31.0925H77.7954V34.1502H81.4034Z" fill="white"/>
<path d="M99.5042 32.0098H97.5472V37.9112H91.7377V21.3385H97.5472V27.4539H99.6265L103.693 21.3385H109.839L104.274 29.2885L110.206 37.9112H103.357L99.5042 32.0098Z" fill="white"/>
<path d="M129.01 21.3385V37.9112H123.201V25.9556H119.012L118.89 28.4935C118.808 30.6543 118.594 32.4379 118.247 33.8444C117.901 35.251 117.33 36.3517 116.535 37.1467C115.74 37.9213 114.65 38.3087 113.263 38.3087C112.55 38.3087 111.612 38.1761 110.45 37.9112L110.695 33.1718C111.062 33.2125 111.307 33.2329 111.429 33.2329C112.061 33.2329 112.54 33.0291 112.866 32.6214C113.192 32.2137 113.416 31.6735 113.539 31.0008C113.661 30.3077 113.742 29.3904 113.783 28.2489L114.028 21.3385H129.01Z" fill="white"/>
<path d="M149.977 21.3385V37.9112H144.442V36.1683C143.831 36.8206 143.097 37.32 142.241 37.6665C141.405 38.0131 140.508 38.1863 139.55 38.1863C137.389 38.1863 135.667 37.5544 134.382 36.2906C133.119 35.0267 132.487 33.131 132.487 30.6033V21.3385H138.296V29.6554C138.296 32.0404 139.224 33.2329 141.079 33.2329C141.996 33.2329 142.74 32.9169 143.311 32.285C143.882 31.6327 144.167 30.6441 144.167 29.3191V21.3385H149.977Z" fill="white"/>
<path d="M171.519 21.3385V34.8841C171.519 37.9621 170.684 40.2656 169.012 41.7944C167.341 43.3436 164.935 44.1182 161.796 44.1182C160.165 44.1182 158.636 43.9348 157.209 43.5679C155.783 43.2009 154.57 42.6607 153.571 41.9473L155.681 37.8806C156.353 38.431 157.199 38.859 158.218 39.1648C159.258 39.491 160.277 39.654 161.276 39.654C162.805 39.654 163.926 39.3177 164.64 38.645C165.353 37.9723 165.71 36.9735 165.71 35.6485V35.0981C164.589 36.4027 162.948 37.055 160.787 37.055C159.319 37.055 157.964 36.7289 156.72 36.0765C155.477 35.4039 154.488 34.4662 153.754 33.2635C153.02 32.0404 152.653 30.6339 152.653 29.0439C152.653 27.4743 153.02 26.0881 153.754 24.8855C154.488 23.6624 155.477 22.7247 156.72 22.0724C157.964 21.3997 159.319 21.0634 160.787 21.0634C163.152 21.0634 164.884 21.8278 165.985 23.3566V21.3385H171.519ZM162.163 32.4379C163.202 32.4379 164.059 32.122 164.731 31.49C165.424 30.8581 165.771 30.0427 165.771 29.0439C165.771 28.0451 165.435 27.2399 164.762 26.6283C164.089 25.9964 163.223 25.6804 162.163 25.6804C161.103 25.6804 160.226 25.9964 159.533 26.6283C158.861 27.2399 158.524 28.0451 158.524 29.0439C158.524 30.0427 158.871 30.8581 159.564 31.49C160.257 32.122 161.123 32.4379 162.163 32.4379Z" fill="white"/>
<path d="M60.2629 46.0099V55.9886H57.4688V48.248H53.6769V55.9886H50.8971V46.0099H60.2629Z" fill="white"/>
<path d="M66.3733 48.1339C67.2191 48.1339 67.9556 48.2955 68.5829 48.6186C69.2101 48.9417 69.69 49.4074 70.0227 50.0156C70.3648 50.6143 70.5359 51.3176 70.5359 52.1254C70.5359 52.9237 70.379 53.627 70.0654 54.2352C69.7518 54.8339 69.3099 55.2996 68.7397 55.6322C68.1695 55.9554 67.509 56.1169 66.7582 56.1169C65.8743 56.1169 65.1806 55.8461 64.6769 55.3044V58.7542H61.9684V52.1539C61.9684 51.3556 62.1489 50.6524 62.5101 50.0441C62.8712 49.4359 63.3844 48.9655 64.0497 48.6329C64.7149 48.3002 65.4895 48.1339 66.3733 48.1339ZM66.245 53.9644C66.7297 53.9644 67.1193 53.798 67.4139 53.4654C67.718 53.1233 67.8701 52.6766 67.8701 52.1254C67.8701 51.5742 67.718 51.1323 67.4139 50.7997C67.1193 50.4575 66.7297 50.2865 66.245 50.2865C65.7603 50.2865 65.3707 50.4575 65.076 50.7997C64.7814 51.1323 64.6341 51.5742 64.6341 52.1254C64.6341 52.6861 64.7767 53.1328 65.0618 53.4654C65.3564 53.798 65.7508 53.9644 66.245 53.9644Z" fill="white"/>
<path d="M75.6511 56.1169C74.8243 56.1169 74.0782 55.9459 73.413 55.6037C72.7477 55.2616 72.225 54.7864 71.8449 54.1782C71.4743 53.57 71.2889 52.881 71.2889 52.1112C71.2889 51.3509 71.4743 50.6666 71.8449 50.0584C72.225 49.4502 72.743 48.9797 73.3987 48.6471C74.064 48.305 74.8148 48.1339 75.6511 48.1339C76.4874 48.1339 77.2382 48.305 77.9034 48.6471C78.5687 48.9797 79.0866 49.4502 79.4573 50.0584C79.8279 50.6571 80.0132 51.3414 80.0132 52.1112C80.0132 52.881 79.8279 53.57 79.4573 54.1782C79.0866 54.7864 78.5687 55.2616 77.9034 55.6037C77.2382 55.9459 76.4874 56.1169 75.6511 56.1169ZM75.6511 53.9644C76.1263 53.9644 76.5159 53.8028 76.82 53.4797C77.1241 53.1471 77.2762 52.6909 77.2762 52.1112C77.2762 51.5409 77.1241 51.0943 76.82 50.7712C76.5159 50.448 76.1263 50.2865 75.6511 50.2865C75.1759 50.2865 74.7863 50.448 74.4821 50.7712C74.178 51.0943 74.026 51.5409 74.026 52.1112C74.026 52.6909 74.178 53.1471 74.4821 53.4797C74.7863 53.8028 75.1759 53.9644 75.6511 53.9644Z" fill="white"/>
<path d="M85.3748 54.0499C85.7455 54.0499 86.0638 53.9976 86.3299 53.8931C86.6055 53.7885 86.8811 53.6175 87.1567 53.3799L88.568 54.8625C87.8362 55.6988 86.7433 56.1169 85.2893 56.1169C84.3864 56.1169 83.5929 55.9459 82.9086 55.6037C82.2244 55.2616 81.6922 54.7864 81.312 54.1782C80.9414 53.57 80.7561 52.881 80.7561 52.1112C80.7561 51.3509 80.9414 50.6714 81.312 50.0726C81.6827 49.4644 82.1911 48.9892 82.8374 48.6471C83.4931 48.305 84.2249 48.1339 85.0327 48.1339C85.7835 48.1339 86.4677 48.2907 87.0855 48.6043C87.7127 48.9085 88.2116 49.3599 88.5823 49.9586C88.9529 50.5478 89.1382 51.2511 89.1382 52.0684L83.6214 53.1233C83.916 53.741 84.5005 54.0499 85.3748 54.0499ZM85.0469 50.0584C84.5813 50.0584 84.2011 50.2057 83.9065 50.5003C83.6119 50.7854 83.4456 51.1988 83.4076 51.7405L86.5438 51.1275C86.4487 50.8044 86.2682 50.5478 86.0021 50.3577C85.736 50.1582 85.4176 50.0584 85.0469 50.0584Z" fill="white"/>
<path d="M94.0507 53.2373H93.1383V55.9886H90.4298V48.2622H93.1383V51.1133H94.1077L96.0037 48.2622H98.869L96.2745 51.9686L99.04 55.9886H95.8468L94.0507 53.2373Z" fill="white"/>
<path d="M110.002 48.1339C110.953 48.1339 111.708 48.419 112.269 48.9892C112.839 49.5594 113.124 50.4195 113.124 51.5695V55.9886H110.416V52.0114C110.416 51.4697 110.311 51.0705 110.102 50.8139C109.903 50.5573 109.617 50.429 109.247 50.429C108.838 50.429 108.51 50.5716 108.263 50.8567C108.016 51.1418 107.893 51.5742 107.893 52.1539V55.9886H105.184V52.0114C105.184 50.9565 104.794 50.429 104.015 50.429C103.597 50.429 103.264 50.5716 103.017 50.8567C102.77 51.1418 102.647 51.5742 102.647 52.1539V55.9886H99.938V48.2622H102.518V49.0748C102.803 48.7611 103.141 48.5283 103.53 48.3763C103.93 48.2147 104.362 48.1339 104.828 48.1339C105.369 48.1339 105.854 48.2337 106.282 48.4333C106.709 48.6329 107.056 48.937 107.322 49.3456C107.626 48.956 108.011 48.6566 108.477 48.4475C108.943 48.2385 109.451 48.1339 110.002 48.1339Z" fill="white"/>
<path d="M114.764 48.2622H117.458V51.1275H120.238V48.2622H122.947V55.9886H120.238V53.2801H117.458V55.9886H114.764V48.2622Z" fill="white"/>
<path d="M128.451 56.2167C125.895 56.2167 124.617 55.119 124.617 52.9237V48.2622H127.311V50.7141C127.511 50.5811 127.777 50.4718 128.109 50.3863C128.451 50.3007 128.841 50.258 129.278 50.258C130.229 50.258 130.975 50.5003 131.516 50.985C132.058 51.4602 132.329 52.1682 132.329 53.109C132.329 54.1259 131.977 54.9005 131.274 55.4327C130.58 55.9554 129.639 56.2167 128.451 56.2167ZM132.97 48.2622H135.679V55.9886H132.97V48.2622ZM128.451 54.3635C128.822 54.3635 129.102 54.2542 129.293 54.0356C129.483 53.8171 129.578 53.5272 129.578 53.1661C129.578 52.8144 129.483 52.5388 129.293 52.3392C129.102 52.1397 128.827 52.0399 128.466 52.0399C128.209 52.0399 127.981 52.0874 127.781 52.1824C127.582 52.2775 127.425 52.4058 127.311 52.5673V53.1661C127.311 53.5367 127.406 53.8313 127.596 54.0499C127.786 54.259 128.071 54.3635 128.451 54.3635Z" fill="white"/>
<path d="M141.589 54.0499C141.96 54.0499 142.278 53.9976 142.544 53.8931C142.82 53.7885 143.095 53.6175 143.371 53.3799L144.782 54.8625C144.05 55.6988 142.957 56.1169 141.503 56.1169C140.601 56.1169 139.807 55.9459 139.123 55.6037C138.438 55.2616 137.906 54.7864 137.526 54.1782C137.155 53.57 136.97 52.881 136.97 52.1112C136.97 51.3509 137.155 50.6714 137.526 50.0726C137.897 49.4644 138.405 48.9892 139.051 48.6471C139.707 48.305 140.439 48.1339 141.247 48.1339C141.998 48.1339 142.682 48.2907 143.3 48.6043C143.927 48.9085 144.426 49.3599 144.796 49.9586C145.167 50.5478 145.352 51.2511 145.352 52.0684L139.835 53.1233C140.13 53.741 140.715 54.0499 141.589 54.0499ZM141.261 50.0584C140.795 50.0584 140.415 50.2057 140.121 50.5003C139.826 50.7854 139.66 51.1988 139.622 51.7405L142.758 51.1275C142.663 50.8044 142.482 50.5478 142.216 50.3577C141.95 50.1582 141.632 50.0584 141.261 50.0584Z" fill="white"/>
<path d="M154.67 56.1169C153.815 56.1169 153.05 55.9459 152.375 55.6037C151.7 55.2616 151.173 54.7864 150.792 54.1782C150.422 53.57 150.236 52.881 150.236 52.1112C150.236 51.3414 150.422 50.6571 150.792 50.0584C151.173 49.4502 151.7 48.9797 152.375 48.6471C153.05 48.305 153.815 48.1339 154.67 48.1339C155.544 48.1339 156.3 48.324 156.936 48.7041C157.573 49.0748 158.025 49.5927 158.291 50.258L156.195 51.3271C155.844 50.6334 155.33 50.2865 154.656 50.2865C154.171 50.2865 153.767 50.448 153.444 50.7712C153.13 51.0943 152.973 51.5409 152.973 52.1112C152.973 52.6909 153.13 53.1471 153.444 53.4797C153.767 53.8028 154.171 53.9644 154.656 53.9644C155.33 53.9644 155.844 53.6175 156.195 52.9237L158.291 53.9929C158.025 54.6581 157.573 55.1808 156.936 55.561C156.3 55.9316 155.544 56.1169 154.67 56.1169Z" fill="white"/>
<path d="M167.378 48.2622V55.9886H164.798V55.1761C164.513 55.4802 164.171 55.713 163.772 55.8746C163.382 56.0361 162.964 56.1169 162.517 56.1169C161.51 56.1169 160.707 55.8223 160.108 55.2331C159.519 54.6439 159.224 53.76 159.224 52.5816V48.2622H161.933V52.1397C161.933 53.2516 162.365 53.8076 163.23 53.8076C163.657 53.8076 164.004 53.6602 164.27 53.3656C164.537 53.0615 164.67 52.6006 164.67 51.9829V48.2622H167.378Z" fill="white"/>
<path d="M173.074 56.1169C172.218 56.1169 171.453 55.9459 170.779 55.6037C170.104 55.2616 169.576 54.7864 169.196 54.1782C168.826 53.57 168.64 52.881 168.64 52.1112C168.64 51.3414 168.826 50.6571 169.196 50.0584C169.576 49.4502 170.104 48.9797 170.779 48.6471C171.453 48.305 172.218 48.1339 173.074 48.1339C173.948 48.1339 174.704 48.324 175.34 48.7041C175.977 49.0748 176.429 49.5927 176.695 50.258L174.599 51.3271C174.247 50.6334 173.734 50.2865 173.06 50.2865C172.575 50.2865 172.171 50.448 171.848 50.7712C171.534 51.0943 171.377 51.5409 171.377 52.1112C171.377 52.6909 171.534 53.1471 171.848 53.4797C172.171 53.8028 172.575 53.9644 173.06 53.9644C173.734 53.9644 174.247 53.6175 174.599 52.9237L176.695 53.9929C176.429 54.6581 175.977 55.1808 175.34 55.561C174.704 55.9316 173.948 56.1169 173.074 56.1169Z" fill="white"/>
<path d="M187.892 48.1339C188.842 48.1339 189.598 48.419 190.158 48.9892C190.729 49.5594 191.014 50.4195 191.014 51.5695V55.9886H188.305V52.0114C188.305 51.4697 188.201 51.0705 187.992 50.8139C187.792 50.5573 187.507 50.429 187.136 50.429C186.728 50.429 186.4 50.5716 186.153 50.8567C185.906 51.1418 185.782 51.5742 185.782 52.1539V55.9886H183.074V52.0114C183.074 50.9565 182.684 50.429 181.905 50.429C181.486 50.429 181.154 50.5716 180.907 50.8567C180.66 51.1418 180.536 51.5742 180.536 52.1539V55.9886H177.828V48.2622H180.408V49.0748C180.693 48.7611 181.03 48.5283 181.42 48.3763C181.819 48.2147 182.251 48.1339 182.717 48.1339C183.259 48.1339 183.744 48.2337 184.171 48.4333C184.599 48.6329 184.946 48.937 185.212 49.3456C185.516 48.956 185.901 48.6566 186.367 48.4475C186.832 48.2385 187.341 48.1339 187.892 48.1339Z" fill="white"/>
<path d="M196.745 54.0499C197.116 54.0499 197.434 53.9976 197.7 53.8931C197.976 53.7885 198.251 53.6175 198.527 53.3799L199.938 54.8625C199.206 55.6988 198.113 56.1169 196.659 56.1169C195.757 56.1169 194.963 55.9459 194.279 55.6037C193.595 55.2616 193.062 54.7864 192.682 54.1782C192.312 53.57 192.126 52.881 192.126 52.1112C192.126 51.3509 192.312 50.6714 192.682 50.0726C193.053 49.4644 193.561 48.9892 194.208 48.6471C194.863 48.305 195.595 48.1339 196.403 48.1339C197.154 48.1339 197.838 48.2907 198.456 48.6043C199.083 48.9085 199.582 49.3599 199.952 49.9586C200.323 50.5478 200.508 51.2511 200.508 52.0684L194.992 53.1233C195.286 53.741 195.871 54.0499 196.745 54.0499ZM196.417 50.0584C195.951 50.0584 195.571 50.2057 195.277 50.5003C194.982 50.7854 194.816 51.1988 194.778 51.7405L197.914 51.1275C197.819 50.8044 197.638 50.5478 197.372 50.3577C197.106 50.1582 196.788 50.0584 196.417 50.0584Z" fill="white"/>
<path d="M209.298 55.9886V51.9258L207.317 55.3044H206.162L204.238 51.8688V55.9886H201.8V48.2622H204.651L206.804 52.2965L209.17 48.2622H211.722L211.736 55.9886H209.298Z" fill="white"/>
<path d="M217.241 56.2167C214.685 56.2167 213.407 55.119 213.407 52.9237V48.2622H216.101V50.7141C216.3 50.5811 216.567 50.4718 216.899 50.3863C217.241 50.3007 217.631 50.258 218.068 50.258C219.018 50.258 219.765 50.5003 220.306 50.985C220.848 51.4602 221.119 52.1682 221.119 53.109C221.119 54.1259 220.767 54.9005 220.064 55.4327C219.37 55.9554 218.429 56.2167 217.241 56.2167ZM221.76 48.2622H224.469V55.9886H221.76V48.2622ZM217.241 54.3635C217.612 54.3635 217.892 54.2542 218.082 54.0356C218.272 53.8171 218.367 53.5272 218.367 53.1661C218.367 52.8144 218.272 52.5388 218.082 52.3392C217.892 52.1397 217.617 52.0399 217.256 52.0399C216.999 52.0399 216.771 52.0874 216.571 52.1824C216.372 52.2775 216.215 52.4058 216.101 52.5673V53.1661C216.101 53.5367 216.196 53.8313 216.386 54.0499C216.576 54.259 216.861 54.3635 217.241 54.3635Z" fill="white"/>
<path d="M9.34487 42.7144L17.3506 24.2754H20.0364V29.492L14.3549 42.7144H18.5902V40.3385C18.5902 39.76 19.5543 39.7187 20.0364 39.7704V47.053C18.7142 47.053 18.5213 46.6054 18.5902 46.3816V44.3156H13.5802L1.18418 71.9999H0.71933L3.86998 62.4447C3.86998 62.4447 1.08088 61.36 2.01058 59.0358C2.94028 56.7115 8.51847 44.3156 8.51847 44.3156H2.01058V42.7144H9.34487Z" fill="url(#paint0_linear)"/>
<path d="M30.2114 42.7144L22.2057 24.2754H19.5199V29.492L25.2014 42.7144H20.9661V40.3385C20.9661 39.76 20.002 39.7187 19.5199 39.7704V47.053C20.8421 47.053 21.035 46.6054 20.9661 46.3816V44.3156H25.9761L38.3721 71.9999H38.837L35.6863 62.4447C35.6863 62.4447 38.4754 61.36 37.5457 59.0358C36.616 56.7115 31.0378 44.3156 31.0378 44.3156H37.5457V42.7144H30.2114Z" fill="url(#paint1_linear)"/>
<path fill-rule="evenodd" clip-rule="evenodd" d="M19.8298 21.5897C22.8535 21.5897 25.3047 19.1385 25.3047 16.1148C25.3047 13.0911 22.8535 10.6399 19.8298 10.6399C16.8061 10.6399 14.3549 13.0911 14.3549 16.1148C14.3549 19.1385 16.8061 21.5897 19.8298 21.5897ZM19.8298 24.5854C24.508 24.5854 28.3004 20.793 28.3004 16.1148C28.3004 11.4366 24.508 7.64419 19.8298 7.64419C15.1517 7.64419 11.3593 11.4366 11.3593 16.1148C11.3593 20.793 15.1517 24.5854 19.8298 24.5854Z" fill="white"/>
<path d="M18.2803 0H21.3793V8.16069H18.2803V0Z" fill="white"/>
<defs>
<linearGradient id="paint0_linear" x1="19.7782" y1="24.2754" x2="19.7782" y2="71.9999" gradientUnits="userSpaceOnUse">
<stop stop-color="#FFA948"/>
<stop offset="0.515625" stop-color="#FF6E14"/>
</linearGradient>
<linearGradient id="paint1_linear" x1="19.7782" y1="24.2754" x2="19.7782" y2="71.9999" gradientUnits="userSpaceOnUse">
<stop stop-color="#FFA948"/>
<stop offset="0.515625" stop-color="#FF6E14"/>
</linearGradient>
</defs>
</svg>
